<svg width="800" height="800" viewBox="0 0 800 800" fill="none" xmlns="http://www.w3.org/2000/svg">
<g clip-path="url(#clip0_269_640)">
<path d="M242.952 428.029C235.911 421.149 232.472 412.243 233.258 402.988C235.058 381.761 257.325 366.347 283.099 348.493C289.085 344.346 297.232 338.707 303.94 333.479C291.007 332.999 267.072 333.238 244.446 333.693C230.592 333.96 216.792 334.226 204.351 334.226C164.071 334.226 148.336 332.012 140.283 319.612C76.7354 221.478 31.202 119.862 21.4675 54.4081L15.9877 17.7139L49.6554 33.3141C327.686 162.185 570.197 385.441 715.011 645.818L731.638 675.698L697.438 675.538C649.904 675.312 476.675 656.779 242.952 428.029Z" fill="url(#paint0_linear_269_640)"/>
<path d="M787.612 798.5C785.133 799.514 782.559 799.994 780.026 799.994C772.186 799.994 764.732 795.3 761.559 787.607C748.573 755.966 733.758 724.874 718.011 694.126C717.518 694.22 717.105 694.567 716.611 694.647C716.611 694.647 710.438 695.58 698.585 695.58C649.131 695.58 469.102 677.312 229.031 442.35C217.645 431.217 212.098 416.643 213.391 401.308C215.044 381.735 226.711 367.002 242.405 353.734C229.245 353.987 216.191 354.228 204.351 354.228C163.645 354.228 137.883 352.628 123.564 330.507C108.017 306.493 -6.0907 125.958 0.256287 21.4891C0.256287 21.4891 1.25629 15.275 2.69696 11.9827C7.07043 1.9029 18.8035 -2.73778 28.9911 1.67634C374.686 152.638 662.343 440.762 798.492 772.367C802.692 782.607 797.812 794.287 787.612 798.5ZM41.2428 51.463C50.2429 111.89 92.8841 209.598 157.071 308.734C159.912 313.12 179.338 314.213 204.339 314.213C229.045 314.213 259.193 313.146 284.154 313.146C309.621 313.146 329.687 314.252 333.087 318.732C352.994 344.933 230.339 387.707 256.94 413.734C484.808 636.765 650.331 655.312 697.531 655.538C554.65 398.615 318.473 179.958 41.2428 51.463Z" fill="#DDC4FF"/>
</g>
<defs>
<linearGradient id="paint0_linear_269_640" x1="-556" y1="-491.501" x2="668.001" y2="628.499" gradientUnits="userSpaceOnUse">
<stop stop-color="#DFC4FF"/>
<stop offset="0.264043" stop-color="#BDA8FF" stop-opacity="0.3"/>
<stop offset="1" stop-color="#362750"/>
</linearGradient>
<clipPath id="clip0_269_640">
<rect width="800" height="800" fill="white" transform="matrix(-1 0 0 1 800 0)"/>
</clipPath>
</defs>
</svg>
